<svg width="224" height="58" viewBox="0 0 224 58" fill="none" xmlns="http://www.w3.org/2000/svg">
<path fill-rule="evenodd" clip-rule="evenodd" d="M8.97207 9.0332H0V0.0598225H8.97207V9.0332ZM8.85245 49.6527H0.11963V15.0154H8.85245V49.6527ZM48.8081 49.6527H40.0154V47.858C38.8989 48.7753 37.6827 49.4433 36.3668 49.8621C35.0509 50.2808 33.6553 50.4902 32.1798 50.4902C29.7474 50.4902 27.5144 50.0016 25.4807 49.0245C23.447 48.0474 21.6925 46.7314 20.2171 45.0763C18.7417 43.4212 17.5952 41.4969 16.7778 39.3034C15.9603 37.1099 15.5516 34.7968 15.5516 32.364C15.5516 29.7717 16.0201 27.3688 16.9572 25.1554C17.8943 22.9419 19.1404 21.0176 20.6956 19.3825C22.2507 17.7473 24.0252 16.4612 26.019 15.5239C28.0128 14.5867 30.0664 14.1181 32.1798 14.1181C33.6553 14.1181 35.0908 14.3175 36.4864 14.7163C37.8821 15.1152 39.0784 15.6735 40.0753 16.3914V0H48.8081V49.6527ZM40.1351 40.3802V23.7495C39.7363 23.4704 39.2777 23.2012 38.7594 22.9419C38.241 22.6827 37.7027 22.4634 37.1444 22.2839C36.5861 22.1044 36.0279 21.9648 35.4696 21.8651C34.9113 21.7654 34.4129 21.7156 33.9743 21.7156C32.5387 21.7156 31.2328 21.9648 30.0564 22.4633C28.8801 22.9619 27.8533 23.6797 26.976 24.617C26.0988 25.5542 25.4209 26.6808 24.9424 27.9969C24.4639 29.313 24.2246 30.7687 24.2246 32.364C24.2246 33.9194 24.4639 35.3451 24.9424 36.6413C25.4209 37.9374 26.0788 39.0541 26.9162 39.9913C27.7536 40.9286 28.7605 41.6564 29.9368 42.1749C31.1132 42.6933 32.3991 42.9526 33.7948 42.9526C36.0677 42.9526 38.1812 42.0951 40.1351 40.3802ZM91.6946 32.3041C91.6946 32.8625 91.6647 33.4408 91.6049 34.039C91.5451 34.6372 91.4753 35.2554 91.3955 35.8935H63.7615C64.0805 36.8905 64.5291 37.8377 65.1073 38.7351C65.6856 39.6324 66.3933 40.4101 67.2307 41.0681C68.0681 41.7262 69.0152 42.2447 70.0719 42.6235C71.1286 43.0024 72.295 43.1918 73.571 43.1918C75.1262 43.1918 76.6813 42.9226 78.2365 42.3842C79.7916 41.8458 81.0876 41.118 82.1244 40.2007L87.5674 45.6446C85.1749 47.4393 82.8322 48.7055 80.5393 49.4433C78.2464 50.1811 75.824 50.55 73.2719 50.55C70.68 50.55 68.2576 50.0714 66.0045 49.1143C63.7516 48.1571 61.7977 46.861 60.1428 45.2258C58.4879 43.5907 57.182 41.6664 56.225 39.4529C55.268 37.2395 54.7895 34.8765 54.7895 32.364C54.7895 29.8514 55.268 27.4885 56.225 25.275C57.182 23.0616 58.4979 21.1373 60.1727 19.5021C61.8475 17.867 63.8014 16.5708 66.0345 15.6137C68.2675 14.6565 70.6601 14.1779 73.2121 14.1779C75.6446 14.1779 77.9773 14.6266 80.2103 15.5239C82.4434 16.4213 84.4172 17.6676 86.1319 19.2628C87.8466 20.8581 89.2024 22.7625 90.1993 24.9759C91.1962 27.1893 91.6946 29.6321 91.6946 32.3041ZM82.6627 28.9541C81.9848 26.7606 80.7786 24.9958 79.044 23.6598C77.3094 22.3238 75.3455 21.6557 73.1523 21.6557C70.999 21.6557 69.065 22.3238 67.3504 23.6598C65.6357 24.9958 64.4394 26.7606 63.7615 28.9541H82.6627ZM125.19 49.6527H116.517V47.7982C115.002 48.8351 113.397 49.553 111.702 49.9518C110.008 50.3506 108.263 50.55 106.469 50.55C104.794 50.55 103.279 50.3008 101.923 49.8022C100.567 49.3037 99.3906 48.5858 98.3937 47.6486C97.3968 46.7114 96.6292 45.6047 96.0909 44.3285C95.5526 43.0523 95.2834 41.6365 95.2834 40.0811C95.2834 38.1269 95.7121 36.4219 96.5694 34.9663C97.4268 33.5106 98.5931 32.2942 100.069 31.3171C101.544 30.34 103.269 29.6121 105.242 29.1336C107.216 28.655 109.34 28.4157 111.613 28.4157H116.577C116.577 26.3817 115.919 24.7665 114.603 23.5701C113.287 22.3736 111.393 21.7754 108.921 21.7754C107.725 21.7754 106.489 21.9947 105.213 22.4334C103.936 22.8721 102.66 23.6698 101.384 24.8263L96.3003 19.6816C98.1346 17.9268 100.258 16.5708 102.67 15.6137C105.083 14.6565 107.565 14.1779 110.117 14.1779C112.51 14.1779 114.643 14.5568 116.517 15.3146C118.392 16.0723 119.907 17.0494 121.063 18.2459C122.578 19.7614 123.645 21.4563 124.263 23.3308C124.881 25.2052 125.19 27.5981 125.19 30.5095V49.6527ZM116.517 41.0382V34.6372H112.57C111.373 34.6372 110.247 34.717 109.19 34.8765C108.133 35.036 107.216 35.3052 106.439 35.6841C105.661 36.063 105.043 36.5515 104.584 37.1498C104.126 37.748 103.897 38.4659 103.897 39.3034C103.897 40.4998 104.365 41.4769 105.302 42.2347C106.239 42.9924 107.446 43.3713 108.921 43.3713C110.197 43.3713 111.463 43.1719 112.719 42.7731C113.975 42.3743 115.241 41.796 116.517 41.0382Z" transform="translate(96.8329)" fill="#F0343F"/>
<path fill-rule="evenodd" clip-rule="evenodd" d="M12.5609 10.6484L4.18697 17.528L0 12.5627L13.2189 1.91432H19.7386V44.2687H12.5609V10.6484ZM61.9518 33.8595C61.9518 32.3041 62.2409 30.8584 62.8191 29.5224C63.3973 28.1864 64.1948 27.0099 65.2117 25.9929C66.2285 24.9759 67.4048 24.1783 68.7407 23.6C70.0765 23.0217 71.522 22.7326 73.0772 22.7326C74.6324 22.7326 76.0779 23.0217 77.4137 23.6C78.7495 24.1783 79.9259 24.9759 80.9427 25.9929C81.9596 27.0099 82.7571 28.1864 83.3353 29.5224C83.9135 30.8584 84.2026 32.3041 84.2026 33.8595C84.2026 35.4149 83.9135 36.8606 83.3353 38.1967C82.7571 39.5327 81.9596 40.7092 80.9427 41.7262C79.9259 42.7432 78.7495 43.5408 77.4137 44.1191C76.0779 44.6974 74.6324 44.9865 73.0772 44.9865C71.522 44.9865 70.0765 44.6974 68.7407 44.1191C67.4048 43.5408 66.2285 42.7432 65.2117 41.7262C64.1948 40.7092 63.3973 39.5327 62.8191 38.1967C62.2409 36.8606 61.9518 35.4149 61.9518 33.8595ZM78.4604 33.8595C78.4604 32.344 77.9421 31.0678 76.9053 30.0309C75.8685 28.994 74.5925 28.4755 73.0772 28.4755C71.5619 28.4755 70.2859 28.994 69.2491 30.0309C68.2123 31.0678 67.6939 32.344 67.6939 33.8595C67.6939 35.375 68.2123 36.6512 69.2491 37.6882C70.2859 38.7251 71.5619 39.2436 73.0772 39.2436C74.5925 39.2436 75.8685 38.7251 76.9053 37.6882C77.9421 36.6512 78.4604 35.375 78.4604 33.8595ZM33.3608 12.3234C33.3608 10.768 33.6499 9.32235 34.2281 7.9863C34.8063 6.65026 35.6038 5.47376 36.6207 4.45678C37.6375 3.43979 38.8138 2.64216 40.1497 2.06388C41.4855 1.48559 42.931 1.19645 44.4862 1.19645C46.0414 1.19645 47.4868 1.48559 48.8227 2.06388C50.1585 2.64216 51.3349 3.43979 52.3517 4.45678C53.3685 5.47376 54.166 6.65026 54.7443 7.9863C55.3225 9.32235 55.6116 10.768 55.6116 12.3234C55.6116 13.8788 55.3225 15.3245 54.7443 16.6606C54.166 17.9966 53.3685 19.1731 52.3517 20.1901C51.3349 21.2071 50.1585 22.0047 48.8227 22.583C47.4868 23.1613 46.0414 23.4504 44.4862 23.4504C42.931 23.4504 41.4855 23.1613 40.1497 22.583C38.8138 22.0047 37.6375 21.2071 36.6207 20.1901C35.6038 19.1731 34.8063 17.9966 34.2281 16.6606C33.6499 15.3245 33.3608 13.8788 33.3608 12.3234ZM49.8694 12.3234C49.8694 10.8079 49.351 9.53172 48.3143 8.4948C47.2775 7.45787 46.0015 6.93941 44.4862 6.93941C42.9709 6.93941 41.6949 7.45787 40.6581 8.4948C39.6213 9.53172 39.1029 10.8079 39.1029 12.3234C39.1029 13.8389 39.6213 15.1151 40.6581 16.1521C41.6949 17.189 42.9709 17.7075 44.4862 17.7075C46.0015 17.7075 47.2775 17.189 48.3143 16.1521C49.351 15.1151 49.8694 13.8389 49.8694 12.3234ZM68.7108 0L73.6753 2.27326L48.7928 46.183L43.8282 43.9097L68.7108 0Z" transform="translate(0 3.99286)" fill="#267CEC"/>
<path d="M219.781 0H0V5.56489H219.781V0Z" transform="translate(4.21899 52.4351)" fill="#F8E81E"/>
</svg>
